<svg xmlns="http://www.w3.org/2000/svg" width="816" height="1006" style="shape-rendering:geometricPrecision;text-rendering:geometricPrecision;image-rendering:optimizeQuality;fill-rule:evenodd;clip-rule:evenodd"><path fill="#1f1d1d" d="M204.5 17.5c25.95.788 37.45 14.121 34.5 40-5.355 17.44-17.188 24.94-35.5 22.5-13.711-2.044-21.877-9.877-24.5-23.5-2.943-20.838 5.557-33.838 25.5-39Zm1 12c13.399-.434 20.066 6.066 20 19.5-.8 16.467-9.133 22.467-25 18-7.865-7.719-10.032-16.886-6.5-27.5 2.177-5.35 6.01-8.684 11.5-10Z" style="opacity:.999"/><path fill="#1f1d1d" d="M119.5 19.5h14c-.166 8.007 0 16.007.5 24A371.994 371.994 0 0 0 156.5 20a54.56 54.56 0 0 1 18 .5 233.7 233.7 0 0 0-22 22.5 1048.901 1048.901 0 0 0 24 36 54.56 54.56 0 0 1-18-.5 523.967 523.967 0 0 0-16.5-26l-9.5 9.5a79.546 79.546 0 0 1 1 17.5h-14v-60Z" style="opacity:.997"/><path fill="#1f1d1d" d="M243.5 19.5h50v11h-18v49h-14v-49h-18v-11Z" style="opacity:.989"/><path fill="#1f1d1d" d="M310.5 19.5c5.011-.166 10.011 0 15 .5a1522.24 1522.24 0 0 1 25 58.5 57.124 57.124 0 0 1-15 1 103.654 103.654 0 0 1-4-13c-8.36-.331-16.693.002-25 1a75.976 75.976 0 0 0-4 11c-5 1.333-10 1.333-15 0a1069.52 1069.52 0 0 0 23-59Zm7 17c1.25.077 2.083.744 2.5 2 1.84 5.01 3.673 10.01 5.5 15-4.667 1.333-9.333 1.333-14 0a129.505 129.505 0 0 0 6-17Z" style="opacity:.998"/><path fill="#1f1c1c" d="M375.5 19.5h21a359.894 359.894 0 0 0 10 36 387.827 387.827 0 0 0 10-36h20v60h-12c.167-14.004 0-28.004-.5-42a483.093 483.093 0 0 0-10.5 42h-14a790.608 790.608 0 0 0-9.5-38 721.826 721.826 0 0 0-.5 38h-14v-60Z" style="opacity:.996"/><path fill="#1f1d1d" d="M464.5 19.5c5.011-.166 10.011 0 15 .5a2205.359 2205.359 0 0 1 25 59 38.06 38.06 0 0 1-15-.5 43.813 43.813 0 0 1-4-12c-8.36-.331-16.693.002-25 1a42.407 42.407 0 0 0-4 12 57.124 57.124 0 0 1-15-1 1400.974 1400.974 0 0 0 23-59Zm7 16c3.149 5.644 5.815 11.644 8 18-4.667 1.333-9.333 1.333-14 0a98.859 98.859 0 0 0 6-18Z" style="opacity:.997"/><path fill="#1f1d1d" d="M509.5 19.5c11.338-.166 22.672 0 34 .5 7.969 1.966 13.469 6.8 16.5 14.5 3.955 12.112 2.955 23.779-3 35-4.445 5.79-10.279 8.957-17.5 9.5-9.994.5-19.994.666-30 .5v-60Zm14 11a55.98 55.98 0 0 1 19 2c1.697.864 2.863 2.197 3.5 4 3.15 8.976 3.15 17.976 0 27l-2.5 2.5a72.701 72.701 0 0 1-20 1.5v-37Z" style="opacity:.996"/><path fill="#201d1d" d="M571.5 19.5h13v60h-13v-60Z" style="opacity:.957"/><path fill="#1e1c1c" d="M595.5 19.5h14c-.167 14.67 0 29.337.5 44 2.495 3.954 6.161 5.62 11 5 4.592.704 7.925-.963 10-5 .5-14.663.667-29.33.5-44h14a416.752 416.752 0 0 1-1.5 48c-4.712 9.613-12.545 13.946-23.5 13-10.461.811-18.294-3.189-23.5-12a433.807 433.807 0 0 1-1.5-49Z" style="opacity:.994"/><path fill="#1f1d1d" d="M656.5 19.5c4.679-.166 9.345 0 14 .5A739.591 739.591 0 0 0 694 56.5c.5-12.329.667-24.662.5-37h13v60c-4.679.166-9.345 0-14-.5A1952.217 1952.217 0 0 0 671 43.5a647.865 647.865 0 0 0-.5 36h-14v-60Z" style="opacity:.997"/><path fill="#201e1e" d="M106.5 94.5c202.668-.333 405.334 0 608 1 7.516 28.233 22.85 51.066 46 68.5a680.11 680.11 0 0 0 29 19c-9.654 20.781-15.487 42.614-17.5 65.5a1259.87 1259.87 0 0 0 0 71c4.13 43.016 8.463 86.016 13 129 6.36 59.701 4.027 119.034-7 178-23.728 117.686-87.562 206.186-191.5 265.5a3180.44 3180.44 0 0 1-117 58 395.998 395.998 0 0 0-43 28 373.897 373.897 0 0 0-16 16.5 146.724 146.724 0 0 0-35-30.5 675.234 675.234 0 0 0-79-40 1360.296 1360.296 0 0 1-62-32c-94.246-52.316-155.579-130.483-184-234.5-13.663-50.761-19.496-102.427-17.5-155a1893.348 1893.348 0 0 1 13-146 839.642 839.642 0 0 0 3-108c-2.013-22.886-7.846-44.719-17.5-65.5a680.174 680.174 0 0 0 29-19c23.436-17.68 38.77-40.847 46-69.5Z" style="opacity:.998"/><path fill="#f7f7f7" d="M764.5 305.5c-.412 8.9.254 17.567 2 26a4510.308 4510.308 0 0 1 14.5 155c4.081 71.767-5.919 141.434-30 209-26.355 68.675-69.522 124.175-129.5 166.5a1724.005 1724.005 0 0 1-47 29 9541.376 9541.376 0 0 0-117 58 235.37 235.37 0 0 0-47 34.5 232.887 232.887 0 0 0-44-32.5l-122-61c-42.234-22.555-79.401-51.721-111.5-87.5-36.406-44.186-62.073-94.186-77-150-15.145-60.119-20.145-121.119-15-183a9765.323 9765.323 0 0 1 13.5-138c1.746-8.433 2.412-17.1 2-26 .286-22.02-.214-44.02-1.5-66-2.58-18.49-7.413-36.323-14.5-53.5 16.55-10.193 31.717-22.36 45.5-36.5 12.135-13.598 20.636-29.265 25.5-47a44712.178 44712.178 0 0 1 598 0c11.987 36.827 35.321 63.994 70 81.5a3.943 3.943 0 0 1 1 2c-7.087 17.177-11.92 35.01-14.5 53.5a903.45 903.45 0 0 0-1.5 66Z" style="opacity:1"/><path fill="#010101" d="M698.5 120.5c.065.438-.101.772-.5 1a9.454 9.454 0 0 0-1.5-2.5 81755.373 81755.373 0 0 0-572 0 9.454 9.454 0 0 0-1.5 2.5c-.399-.228-.565-.562-.5-1v-3h576v3Z" style="opacity:1"/><path fill="#201e1e" d="M698.5 120.5c13.086 29.435 33.42 52.768 61 70l1 2.5c-9.358 28.732-13.358 58.232-12 88.5a750.523 750.523 0 0 0 3.5 71 2455.555 2455.555 0 0 1 13 132c3.26 62.251-3.74 123.251-21 183-28.804 89.792-84.304 157.626-166.5 203.5a2686.692 2686.692 0 0 1-124 62 367.936 367.936 0 0 0-43 28.5 311.304 311.304 0 0 0-47-30.5 2261.591 2261.591 0 0 1-127-64C140.939 809.691 83.439 725.858 64 615.5c-8.365-47.351-10.699-95.018-7-143a2444.527 2444.527 0 0 1 12-120 650.734 650.734 0 0 0 1-121 226.473 226.473 0 0 0-9.5-38.5l1-2.5c27.58-17.232 47.914-40.565 61-70-.065.438.101.772.5 1a9.454 9.454 0 0 1 1.5-2.5c190.667-.667 381.333-.667 572 0a9.454 9.454 0 0 1 1.5 2.5c.399-.228.565-.562.5-1Z" style="opacity:1"/><path fill="#2f784a" d="M118.5 399.5a59.339 59.339 0 0 0-8 10c-5.166-3.713-10.833-4.88-17-3.5-3.189-5.096-7.522-6.429-13-4-3.303 3.795-3.803 7.962-1.5 12.5 1.487.655 2.653 1.655 3.5 3-1.704 5.632-1.037 10.965 2 16a31.031 31.031 0 0 0-12 4 95.66 95.66 0 0 1 16.5 20c8.958 11.344 19.458 13.011 31.5 5a168.783 168.783 0 0 1 15.5 22c.499 4.655.666 9.321.5 14a29.812 29.812 0 0 1-5 .5 250.55 250.55 0 0 0-6.5-16.5c-2.44-.771-4.94-.938-7.5-.5l-9-11c-3.503.293-6.169 2.126-8 5.5a100.735 100.735 0 0 0-21.5-16 340.166 340.166 0 0 0 2.5 31c-1.984-.117-3.65.55-5 2 3.094 5.928 7.427 10.761 13 14.5-3.21 1.182-3.71 3.015-1.5 5.5 3.698 4.431 8.198 7.764 13.5 10-1.429 1.831-1.93 3.831-1.5 6a20.924 20.924 0 0 0 8.5 4.5c10.441 1.153 20.441 3.819 30 8l1.5 1.5a88.539 88.539 0 0 1 2 17 25.55 25.55 0 0 0-5.5-6.5 117.705 117.705 0 0 0-19-10 74.335 74.335 0 0 1-8-6.5c-1.555 3.63-1.888 7.297-1 11-6.83-.939-12.83 1.061-18 6-4.828-4.202-9.328-3.868-13.5 1-2.12 7.789.713 12.123 8.5 13 .597 6.368 3.597 11.201 9 14.5-3.944 1.61-6.944 4.277-9 8 2.71 1.747 5.71 2.747 9 3a205.993 205.993 0 0 0 17 9c6.365 1.806 12.699 1.806 19 0a266.574 266.574 0 0 0 10.5-10.5c2.984.62 5.818 1.62 8.5 3a557.533 557.533 0 0 0 9 25c-.86 1.772-2.193 3.105-4 4a119.606 119.606 0 0 0-9-9.5c-1.845.783-3.845 1.116-6 1a32.646 32.646 0 0 0-10-6.5l-6 6a1200.001 1200.001 0 0 0-27-4.5 693.699 693.699 0 0 1 10.5 22.5 18.778 18.778 0 0 0 4.5 5.5 499.122 499.122 0 0 1-6 6c5.441 5.055 11.774 8.555 19 10.5-2.544 1.892-2.544 3.725 0 5.5 5.841 3.543 12.174 5.043 19 4.5v5c8.775.223 17.108-1.61 25-5.5 5.822-1.289 10.989-.122 15.5 3.5a214.1 214.1 0 0 0 10.5 14l-.5 1a25.648 25.648 0 0 0-7.5-2.5c-10.029-.048-19.529-2.215-28.5-6.5-.115 5.041 1.385 9.541 4.5 13.5-9.239.405-15.572 4.905-19 13.5-8.959-3.529-13.459-.529-13.5 9 2.458 6.312 6.958 8.479 13.5 6.5 3.46 7.073 9.126 11.239 17 12.5-3.877 2.742-6.544 6.409-8 11a201.587 201.587 0 0 0 42 2.5c10.398-3.251 15.732-10.417 16-21.5a93.8 93.8 0 0 1 20-.5 87.564 87.564 0 0 1 13 12.5c-.685 2.047-1.851 3.714-3.5 5a107.822 107.822 0 0 1-11-4c-1.062 2.564-2.896 4.231-5.5 5a43.517 43.517 0 0 0-15-2v6a36.875 36.875 0 0 0-12 1 15.418 15.418 0 0 1 1 7 1266.82 1266.82 0 0 1-27 2.5c9.655 8.161 20.655 13.661 33 16.5a206.865 206.865 0 0 1-3 8c6.072 2.974 12.405 3.641 19 2l2 1a15.418 15.418 0 0 0-1 7c7.164.673 13.997-.327 20.5-3l4 4c6.072-1.749 11.405-4.749 16-9 .29 2.452.956 4.785 2 7a163.057 163.057 0 0 0 11.5-10 81.224 81.224 0 0 1 22-.5 148.633 148.633 0 0 0 13 10 367.574 367.574 0 0 0-70 26 168.466 168.466 0 0 0-10.5 6.5 612.93 612.93 0 0 0 13 37c.837 2.321 1.17 4.655 1 7-83.361-47.291-138.027-117.291-164-210-14.31-55.437-19.977-111.77-17-169a4833.011 4833.011 0 0 1 13-138c4.51-39.684 4.51-79.351 0-119a283.237 283.237 0 0 0-7.5-32.5 8251.961 8251.961 0 0 0 23-19c15.887-14.874 28.22-32.207 37-52 188.667-.667 377.333-.667 566 0 9.118 20.132 21.785 37.799 38 53a3260.54 3260.54 0 0 1 22 18c-7.846 28.098-11.512 56.765-11 86a736.775 736.775 0 0 0 3.5 65.5 4832.327 4832.327 0 0 1 13 138c4.983 71.265-5.017 140.265-30 207-30.441 75.441-81.107 133.107-152 173l15-45c-24.989-14.242-51.489-24.742-79.5-31.5a3.647 3.647 0 0 1-1-1.5 19.887 19.887 0 0 0 4-3.5 169.166 169.166 0 0 1 26 0c16.999 8.596 33.999 8.596 51 0l24-18a258.254 258.254 0 0 1 28-12 247.923 247.923 0 0 1-61-3c-16.096-1.618-30.096 3.048-42 14-2.33 1.345-4.663 1.512-7 .5 12.396-15.614 28.562-23.614 48.5-24 19.368 3.855 37.868 1.355 55.5-7.5a748.732 748.732 0 0 1 47-45 221.321 221.321 0 0 1-26 9l-37 1c-12.71 3.055-23.044 9.721-31 20-3.515 1.843-7.182 2.843-11 3a110.364 110.364 0 0 0 14.5-20.5c9.164-10.54 20.664-14.54 34.5-12 14.07-.376 27.07-4.21 39-11.5a163.463 163.463 0 0 0 19.5-23.5l21.5-19.5c-10.019 3.216-20.352 5.883-31 8-23.421-1.876-42.088 6.457-56 25-.667.667-1.333.667-2 0a637.951 637.951 0 0 1 10.5-21.5 64.942 64.942 0 0 1 15.5-13.5 399.157 399.157 0 0 0 39-8c11.01-2.902 19.51-9.069 25.5-18.5l13-29a254.387 254.387 0 0 0 13.5-22.5 315.717 315.717 0 0 1-23 14 201.47 201.47 0 0 0-32 13l-10.5 8.5a181.904 181.904 0 0 0-12.5 19.5c-3.874 2.937-8.207 4.771-13 5.5 2.387-21.535 13.387-36.702 33-45.5a148.368 148.368 0 0 0 31-13c6.725-5.063 11.559-11.563 14.5-19.5a4488.261 4488.261 0 0 0 5-40c2.568-6.523 4.234-13.19 5-20-10.581 13.916-23.081 25.749-37.5 35.5-10.872 10.093-16.872 22.593-18 37.5a50.548 50.548 0 0 1-12 6l-1-2.5a376.389 376.389 0 0 1 5.5-28.5c2.171-8.501 7.004-15.001 14.5-19.5a475.811 475.811 0 0 0 31-20c6.063-5.294 10.229-11.794 12.5-19.5a534.867 534.867 0 0 1 4-41 64.218 64.218 0 0 0 0-16 118 118 0 0 1-10 18 1256.366 1256.366 0 0 1-25.5 22c-10.088 9.848-14.921 21.848-14.5 36-4.177 5.987-6.011 5.32-5.5-2-.252-9.911 1.914-19.245 6.5-28a6613.404 6613.404 0 0 1 31-31c6.328-7.647 9.495-16.48 9.5-26.5a529.913 529.913 0 0 1-4-31.5c.79-8.685 1.29-17.352 1.5-26a193.577 193.577 0 0 1-14 29l-17 19c-6.339 10.591-8.173 21.924-5.5 34-3.591 8.249-6.091 7.916-7.5-1-1.81-12.191-.143-23.858 5-35l24-46c3.111-9.446 4.111-19.113 3-29a1023.563 1023.563 0 0 0-23-58c.557 9.627.557 19.293 0 29a904.539 904.539 0 0 1-11 32 385.477 385.477 0 0 0-2 32c-4.218-7.154-6.718-14.821-7.5-23 1.075-11.734 3.908-23.067 8.5-34 5.665-14.7 4.332-28.7-4-42a617.642 617.642 0 0 0-30-29l-13-18c1.147 8.129 3.147 16.129 6 24 .289 25.208 8.289 47.541 24 67 .962 4.319.295 8.319-2 12a289.034 289.034 0 0 1-18-35l-9-44c-4.101-9.69-10.268-17.857-18.5-24.5a383.88 383.88 0 0 0-32-19 282.114 282.114 0 0 1-21.5-18.5 384.26 384.26 0 0 0 12 23 229.275 229.275 0 0 0 17 45c9.71 14.044 21.71 25.71 36 35a164.17 164.17 0 0 1 6 17c-7.175-9.497-16.008-16.997-26.5-22.5-7.289-6.283-13.456-13.449-18.5-21.5a1135.974 1135.974 0 0 1 16 66c3.028 6.034 7.195 11.201 12.5 15.5a172.69 172.69 0 0 0 27 14c6.959 4.629 12.125 10.795 15.5 18.5 2.248 8.097 5.248 15.763 9 23a65.022 65.022 0 0 1 .5 24 15.855 15.855 0 0 1-5.5-6c-1.159-17.816-8.326-32.65-21.5-44.5l-20-14a228.87 228.87 0 0 1-16.5-19.5 9644.388 9644.388 0 0 0 7 27c-1.57 22.634 6.264 41.134 23.5 55.5 10.624 5.727 19.791 13.227 27.5 22.5a86.35 86.35 0 0 1 3 10 840.83 840.83 0 0 1 0 58 48.165 48.165 0 0 1-2.5 5c-4.324-3.304-7.157-7.637-8.5-13a183.819 183.819 0 0 0 1-32c-1.655-7.311-4.655-13.978-9-20l-14-16a316.46 316.46 0 0 0-15-26c.394 6.451.894 12.951 1.5 19.5a734.436 734.436 0 0 1-4.5 30.5c-2.268 16.187 1.398 30.854 11 44l29 27c1.94 6.493 2.773 13.16 2.5 20-.818 14.605-4.151 28.605-10 42-3.396-7.121-5.729-14.621-7-22.5 3.606-13.153 3.772-26.319.5-39.5a53.743 53.743 0 0 0-7-12 127.496 127.496 0 0 1-18-20 303.77 303.77 0 0 0-10-21 36604.818 36604.818 0 0 0-3.5 52.5c.659 20.482 8.493 37.649 23.5 51.5 9.927 22.285 9.927 44.618 0 67a14.587 14.587 0 0 1-4 6c-1.523-3.1-2.356-6.433-2.5-10a313.295 313.295 0 0 0 5.5-24c1.013-11.264-1.654-21.598-8-31a203.94 203.94 0 0 1-12-15 196.32 196.32 0 0 1-11-32 649.762 649.762 0 0 1-8 59c-1.158 19.862 4.842 37.195 18 52a97.7 97.7 0 0 1 1 25c-5.323 13.465-13.156 25.132-23.5 35a28.717 28.717 0 0 1-.5-13c8.829-12.318 12.163-25.985 10-41a774.224 774.224 0 0 0-9-30 739.735 739.735 0 0 0-3.5-28 403.137 403.137 0 0 1-21.5 56c-3.761 16.919-1.428 32.919 7 48 3.729 14.136 1.396 27.136-7 39-6.773 8.943-14.94 16.276-24.5 22-.719-4.713-.219-9.38 1.5-14 9.05-8.767 14.383-19.433 16-32a742.294 742.294 0 0 0-2.5-43c.066-7.428.566-14.761 1.5-22-4.653 7.968-9.32 15.968-14 24a228.081 228.081 0 0 0-22.5 30.5c-3.369 9.332-3.869 18.832-1.5 28.5 4.775 11.64 5.775 23.64 3 36-5.084 9.318-11.917 17.151-20.5 23.5-.832.688-1.498.521-2-.5a1302.009 1302.009 0 0 1-19-54h-21c-1.733-23.827-3.4-47.661-5-71.5l1-2.5c60.686-15.853 99.852-53.853 117.5-114a304.003 304.003 0 0 0 4-24c.5-88.666.667-177.333.5-266h-311c-.167 88.334 0 176.667.5 265 7.421 61.032 38.921 104.532 94.5 130.5a131.275 131.275 0 0 0 29 8.5 2206.133 2206.133 0 0 0-5 74h-21l-2 9h-5c1.769-4.08 2.769-8.413 3-13a85.587 85.587 0 0 1-3.5-23 134.072 134.072 0 0 0-9.5 10 19.887 19.887 0 0 1-4-3.5c-.667-.667-1.333-.667-2 0a231.292 231.292 0 0 1-11 14.5c-2.202-1.28-4.368-1.28-6.5 0a64.77 64.77 0 0 1-6.5 11.5c-2.619-.083-5.286-.25-8-.5-2.991 9.135-2.657 18.135 1 27l-1 1a770.378 770.378 0 0 1-26.5-20c-.799-4.587-.632-9.087.5-13.5 11.278 2.968 20.778.135 28.5-8.5a269.146 269.146 0 0 1 15.5-27 32.598 32.598 0 0 0-15 0c.081-4.173-1.252-7.839-4-11 7.765-8.436 6.265-14.436-4.5-18-6.07 1.23-8.903 4.896-8.5 11-4.784-.661-9.118.339-13 3-1.448-5.29-4.615-9.29-9.5-12a195.112 195.112 0 0 1-3 12 215.783 215.783 0 0 0-10 17c-3.297 11.611-.13 20.945 9.5 28a81.805 81.805 0 0 1-2 7 634.511 634.511 0 0 1-39.5-36c-.93-3.35-.097-6.183 2.5-8.5a129.952 129.952 0 0 0 28-12c4.706-2.998 7.206-7.165 7.5-12.5a11.38 11.38 0 0 1-2.5-2c4.943-5.547 8.61-11.881 11-19l-6-2a26.785 26.785 0 0 0 3-11.5 484.176 484.176 0 0 1-1.5-20.5 148.31 148.31 0 0 1-14 15 13.271 13.271 0 0 0-5.5-5 120.776 120.776 0 0 0-12 14c-2.099-2.02-4.433-2.354-7-1a214.368 214.368 0 0 0-6 12.5c-2.619-.083-5.286-.25-8-.5-2.89 10.933-2.556 21.766 1 32.5.116 2.544-.717 4.711-2.5 6.5a264.09 264.09 0 0 1-27-46c-.667-1-.667-2 0-3a90.021 90.021 0 0 1 8.5-10c8.403 6.95 17.403 7.784 27 2.5a163.69 163.69 0 0 1 22.5-20.5c.617-.949.451-1.782-.5-2.5l-9-4.5c3.262-4.789 4.762-10.122 4.5-16 4.948-2.57 6.615-6.57 5-12-5.717-5.611-11.05-5.278-16 1-5.468-2.636-10.968-2.636-16.5 0a87.683 87.683 0 0 0-6-11c-4.85 8.358-11.017 15.691-18.5 22-5.917 8.138-7.084 16.971-3.5 26.5-2.869 10.723-5.702 10.89-8.5.5a293.137 293.137 0 0 1-10-54c1.986-2.242 4.486-3.242 7.5-3a225.894 225.894 0 0 1 20 5.5c7.175 1.44 13.842.273 20-3.5a18.924 18.924 0 0 0-3-5c8.676-2.942 16.676-7.109 24-12.5a25.513 25.513 0 0 1-4-4.5 74.335 74.335 0 0 0 6.5-8 61.407 61.407 0 0 1 8.5-16 261.388 261.388 0 0 1-27.5-4 34.45 34.45 0 0 0-7 1 46.204 46.204 0 0 1-6.5-5 201.187 201.187 0 0 0-14.5 8 19.953 19.953 0 0 1-4.5-3 45.055 45.055 0 0 0-9.5 10 148.912 148.912 0 0 1-9 25l-3 2a46.225 46.225 0 0 1-2-12 420.29 420.29 0 0 1 0-41 66.65 66.65 0 0 1 12-7c2.156 2.301 3.822 4.967 5 8 5.211 6.022 11.711 8.188 19.5 6.5a118.696 118.696 0 0 1 30-8.5c-2.093-3.71-4.76-6.877-8-9.5 5.197-2.363 8.863-6.197 11-11.5 7.841-.994 11.341-5.328 10.5-13-3.627-5.158-8.127-6.158-13.5-3-4.014-5.127-9.348-7.793-16-8 1.113-4.007 1.113-8.007 0-12a77.927 77.927 0 0 1-9 5.5c-9.99 1.914-18.824 6.081-26.5 12.5-3.64 5.084-5.807 10.751-6.5 17a40.943 40.943 0 0 0-7 5c-2.003-15.283-.837-30.283 3.5-45a12.14 12.14 0 0 0 4.5-3.5l5-.5a239.108 239.108 0 0 0 25.5 5c4.531.424 8.698-.576 12.5-3-.254-2.254-.254-4.587 0-7 6.281-2.139 11.948-5.305 17-9.5l-4-4c7.083-6.758 13.083-14.425 18-23a201.897 201.897 0 0 1-23.5-2.5 42.3 42.3 0 0 0-8 1 21.615 21.615 0 0 0-6-5 86.203 86.203 0 0 0-16.5 10 18.924 18.924 0 0 1-5-3c-5.558 5.472-9.058 12.138-10.5 20-.93 2.862-2.597 5.195-5 7a202.547 202.547 0 0 1 4-30 960.215 960.215 0 0 0 22.5-19 40.102 40.102 0 0 0 12 8.5c4.828.629 9.495-.038 14-2l28-22c-3.218-2.777-6.885-4.777-11-6 4.68-4.864 7.013-10.698 7-17.5 5.022-2.045 6.856-5.711 5.5-11-2.541-4.569-6.375-6.069-11.5-4.5a952.105 952.105 0 0 1-5.5 3.5c-5.91-2.596-11.743-2.596-17.5 0-.672-4.339-2.172-8.339-4.5-12a201.284 201.284 0 0 1-8.5 10.5 78.39 78.39 0 0 0-11 10c-.667.667-1.333.667-2 0a1547.821 1547.821 0 0 1 16.5-33.5l6.5-6.5a416.667 416.667 0 0 0 36.5-23.5c-.325-3.525-2.158-6.192-5.5-8a60.737 60.737 0 0 1 9.5-9 52.17 52.17 0 0 0 7-10c.757-3.487-.409-6.154-3.5-8a48.493 48.493 0 0 1 4.5-7 842.067 842.067 0 0 0 5-23 140.729 140.729 0 0 1 7.5-14c-14.451 3.882-28.118 10.049-41 18.5l-7.5 7.5c-.149-3.963-1.649-7.296-4.5-10-12.168 9.005-21.501 20.338-28 34a38.929 38.929 0 0 1-5.5-5c-7.412 12.108-9.412 25.108-6 39a115.521 115.521 0 0 1 5.5 23c-.786 8.236-3.286 15.902-7.5 23a528 528 0 0 0-5.5-39 26.364 26.364 0 0 0-10 7c-3.308-7.307-8.974-10.974-17-11-.136-7.972-4.136-11.472-12-10.5-4.655 2.897-6.155 7.063-4.5 12.5l2.5 2.5a25.55 25.55 0 0 0-5.5 6.5 86.578 86.578 0 0 1-1.5 13c-3.892-2.826-8.225-3.659-13-2.5a41.501 41.501 0 0 1 4.5 9.5 385.217 385.217 0 0 0 5 22c5.243 13.038 14.743 17.704 28.5 14l7.5 32a348.435 348.435 0 0 1-7 52c-2.729-2.963-3.896-6.463-3.5-10.5a631.524 631.524 0 0 1 6-24 6.293 6.293 0 0 0-1-3 24.935 24.935 0 0 0-7-.5 184.69 184.69 0 0 0-1-21h-6a90.514 90.514 0 0 0-4-14c-1.901-.731-3.901-.731-6 0a411.553 411.553 0 0 0-12.5-24 106.48 106.48 0 0 0-4.5 17c-3.682-.775-6.182.559-7.5 4a98.432 98.432 0 0 0-.5 14h-5c1.337 6.342 2.67 12.675 4 19h-4c1.306 8.424 4.64 15.924 10 22.5a11.068 11.068 0 0 1-2 3.5l1.5 3a108.548 108.548 0 0 0 17.5 13Z" style="opacity:1"/><path fill="#f7eb13" d="M213.5 708.5c3.476 1.143 7.142 1.31 11 .5-.544-.717-1.211-1.217-2-1.5a452.48 452.48 0 0 1-37-44 48.76 48.76 0 0 0-12-3 89.855 89.855 0 0 0-18 5c-2.559.302-4.893-.032-7-1a18.473 18.473 0 0 1 2-3.5c-7.353.833-14.686.333-22-1.5.433-2.785 1.766-5.119 4-7-7.493-1.219-14.493-3.719-21-7.5 2.241-1.739 3.908-3.906 5-6.5-6.488-6.651-10.488-14.318-12-23a168.109 168.109 0 0 0 18 3.5 29.517 29.517 0 0 1 4.5 2.5c.782-2.716 2.116-5.05 4-7a58.473 58.473 0 0 1 11 10 48.165 48.165 0 0 1 2.5-5 111.897 111.897 0 0 1 9 11c1.622-1.939 3.456-2.272 5.5-1a181.343 181.343 0 0 0 8 20 34.706 34.706 0 0 0 7.5 6.5c2.079.808 4.079.641 6-.5a407.715 407.715 0 0 1-20.5-42 98.435 98.435 0 0 1-6.5-22 94.838 94.838 0 0 1-15-4 116.773 116.773 0 0 1-8 10.5c-5.76 2.978-11.76 3.311-18 1-26.471-12.342-24.805-14.842 5-7.5l4-.5a3.647 3.647 0 0 0 1-1.5 792.623 792.623 0 0 1-25-9.5c-6.129-3.423-8.629-8.59-7.5-15.5 4.487-11.433 12.32-14.266 23.5-8.5a421.985 421.985 0 0 1 16.5 10.5c.667-1.333.667-2.667 0-4a91.143 91.143 0 0 1-18-14c-.749-1.135-.583-2.135.5-3l21 11.5c6.874 5.924 9.707 13.424 8.5 22.5 2.397 2.282 5.231 3.616 8.5 4a426.024 426.024 0 0 0-7.5-43 30.125 30.125 0 0 0-7.5-4.5 305.394 305.394 0 0 1-30-8c-.951-.718-1.117-1.551-.5-2.5a31.84 31.84 0 0 0 4.5-5c-6.981-.656-12.648-3.656-17-9 1.667-1 3-2.333 4-4-5.238-2.57-9.572-6.236-13-11l5-2c-4.574-8.113-5.907-16.78-4-26a229.601 229.601 0 0 1 14 11.5c1.717 1.559 3.717 2.392 6 2.5-.338-2.657.329-4.99 2-7 4.791 4.288 8.625 9.288 11.5 15a20.499 20.499 0 0 0 2.5-3.5c.949-.617 1.782-.451 2.5.5a208.12 208.12 0 0 0 6.5 18c1.823-1.247 3.823-1.914 6-2-1.621 10.318.546 19.651 6.5 28a1152.245 1152.245 0 0 1-2-48 190.57 190.57 0 0 0-19-27c-11.056 10.216-21.056 9.216-30-3a169.103 169.103 0 0 0-10.5-14c2.398-1.224 4.731-1.058 7 .5l15 13c1.903.774 3.57.44 5-1-9.39-6.715-16.556-15.215-21.5-25.5-.204-9.65 4.629-15.316 14.5-17 5.328.824 9.495 3.491 12.5 8l11 18c1.44-1.43 1.774-3.097 1-5a69.162 69.162 0 0 1-9-17c-.774-1.903-.44-3.57 1-5a196.076 196.076 0 0 1 15 22c1.613 7.714.113 14.714-4.5 21a406.424 406.424 0 0 0 13.5 20c.271-17.385.938-34.719 2-52-6.288-13.621-16.455-23.121-30.5-28.5a36.548 36.548 0 0 1-7.5-6.5c-.044-2.26.789-4.26 2.5-6-5.713-4.762-9.38-10.762-11-18a20.09 20.09 0 0 0 6-1.5c-3.246-4.662-5.246-9.829-6-15.5 1.545-.952 3.212-1.285 5-1v-3c-.603-5.119.064-9.785 2-14 1.544.203 2.878.87 4 2a121.425 121.425 0 0 1 2.5-12c4.655 5.65 7.988 11.983 10 19a10.94 10.94 0 0 1 4.5-3 21.841 21.841 0 0 1 3 10 13.116 13.116 0 0 0 1 7c.607-.124.94-.457 1-1 1.32-1.442 2.986-2.108 5-2a283.8 283.8 0 0 0 1 22 51.569 51.569 0 0 1 7-1 56.126 56.126 0 0 1-4 14c-1.426 2.179-2.092 4.679-2 7.5.008 1.707.342 3.207 1 4.5.989 7.316 3.656 13.983 8 20a821.969 821.969 0 0 0 9.5-53 65.702 65.702 0 0 0-1-17l-8-30a3.647 3.647 0 0 0-1.5-1c-15.158 5.167-24.325-.167-27.5-16a78.78 78.78 0 0 0-4.5-19c.865-1.083 1.865-1.249 3-.5l3.5 3.5a136.673 136.673 0 0 0 10.5 20.5c1.333.667 2.667.667 4 0a776.557 776.557 0 0 1-9.5-24.5c-2.213-17.112 5.287-23.946 22.5-20.5 4.874 3.604 7.707 8.437 8.5 14.5a269.326 269.326 0 0 1 2.5 21h3c-.633-8.998-.8-17.998-.5-27l2.5-3a91.85 91.85 0 0 1 5 26c.699 9.206-2.968 16.206-11 21-1.035 5.671-.868 11.338.5 17a64.888 64.888 0 0 1 3 12 848.781 848.781 0 0 1 9-27 709.16 709.16 0 0 0 14-33c.82-10.381-.846-20.381-5-30-2.772-11.163-1.605-21.829 3.5-32a74.242 74.242 0 0 0 6.5 5c4.735-14.161 12.902-25.827 24.5-35l2 14c11.199-14.729 25.533-24.062 43-28a87.435 87.435 0 0 0-6.5 26c-2.075 4.079-4.908 7.579-8.5 10.5a57.688 57.688 0 0 1 7 5.5c-5.29 8.29-11.956 15.29-20 21-.886.825-1.219 1.825-1 3 3.472-.374 6.472.626 9 3a266.365 266.365 0 0 1-32 20.5 70.588 70.588 0 0 0-10.5 9.5 461.88 461.88 0 0 0-28 67 104.32 104.32 0 0 1-3.5 15.5l.5 2.5a241.166 241.166 0 0 0 18-19 95.436 95.436 0 0 1-1.5-12c-.238-5.787 1.595-10.787 5.5-15a193.82 193.82 0 0 0 17-16c.584 2.757.25 5.423-1 8a109.993 109.993 0 0 0-13.5 17c.865 1.083 1.865 1.249 3 .5a128.578 128.578 0 0 0 13-14c10.174-9.367 19.007-8.201 26.5 3.5 2.181 4.565 1.848 8.898-1 13a126.472 126.472 0 0 1-26.5 19.5c1.43 1.44 3.097 1.774 5 1a54.074 54.074 0 0 0 15-8c3.238-1.368 6.572-1.701 10-1a119.928 119.928 0 0 1-25 20c-7.967.753-14.3-2.247-19-9-1-.667-2-.667-3 0l-24 20a265.247 265.247 0 0 0-7.5 43.5 134.925 134.925 0 0 0 12-10 48.727 48.727 0 0 0 6-15c1.75-6.882 4.583-7.549 8.5-2 4.221-5.448 9.555-9.448 16-12a42.769 42.769 0 0 1 1.5 9c4.578-5.555 10.412-7.388 17.5-5.5a96.366 96.366 0 0 1 11 2.5c-3.611 7.944-9.278 13.944-17 18 2.284 1.082 3.45 2.748 3.5 5a84.369 84.369 0 0 1-17.5 8c1.941 1.816 2.608 3.816 2 6-8.982 1.506-17.648.34-26-3.5-7.597-1.892-14.097-.059-19.5 5.5-4.522 17.739-5.688 35.739-3.5 54a237.906 237.906 0 0 1 15.5-10c-.307-7.884 2.526-14.384 8.5-19.5a168.224 168.224 0 0 1 24-9.5c1.225 2.343.559 4.177-2 5.5a5300.268 5300.268 0 0 1-16 8c-1.921 1.241-2.254 2.741-1 4.5 9.011-5.504 18.678-8.671 29-9.5 10.218 5.657 12.551 13.657 7 24a94.478 94.478 0 0 1-10 5 208.666 208.666 0 0 0-23 4.5c1.41 2.455 3.577 3.455 6.5 3a291.161 291.161 0 0 1 15-2c2.793-.195 5.293.471 7.5 2-10.607 5.928-21.94 8.428-34 7.5-4.827-4.158-7.994-9.325-9.5-15.5a100.289 100.289 0 0 0-18.5 10 91.047 91.047 0 0 0-1.5 26 467.233 467.233 0 0 0 3.5 36 37.885 37.885 0 0 0 10-6 165.484 165.484 0 0 0 8.5-24 74.335 74.335 0 0 1 6.5-8 34.251 34.251 0 0 1 1.5 8c4.422-5.637 9.922-9.97 16.5-13a42.769 42.769 0 0 1 1.5 9c3.338-4.169 7.671-6.169 13-6a1315.01 1315.01 0 0 0 20.5 3.5 296.648 296.648 0 0 0-7.5 14.5c-2.408 2.456-5.241 4.289-8.5 5.5a12.14 12.14 0 0 0 4.5 3.5c.667.667.667 1.333 0 2a103.384 103.384 0 0 1-23.5 9.5c5.895 5.298 4.729 7.798-3.5 7.5a236.592 236.592 0 0 1-11.5-1.5 55.591 55.591 0 0 0-15-4.5 19.967 19.967 0 0 0-9 2.5c-2.094 1.255-3.094 3.088-3 5.5a314.446 314.446 0 0 0 15.5 68c.414.457.914.791 1.5 1a57.016 57.016 0 0 0 11-15.5c-4.131-7.93-3.964-15.764.5-23.5a182.423 182.423 0 0 0 15.5-16.5c1.1-.432 1.767.068 2 1.5a51.275 51.275 0 0 1-11.5 18c-1.496 1.95-1.663 3.95-.5 6a55.5 55.5 0 0 0 9.5-12c10.225-13.293 20.225-13.293 30 0 .823 4.238.156 8.238-2 12a200.792 200.792 0 0 1-22.5 19c1.574 1.131 3.241 1.298 5 .5a57.668 57.668 0 0 0 12-8c3.102-2.036 6.435-3.036 10-3l1 1a246.412 246.412 0 0 0-16 16c-10.023 6.864-19.023 5.697-27-3.5a110.116 110.116 0 0 0-14 16.5 272.872 272.872 0 0 0 32.5 55.5c.414.457.914.791 1.5 1a926.508 926.508 0 0 0 5-14 72.63 72.63 0 0 1-2.5-28 3.647 3.647 0 0 1 1.5-1 55.482 55.482 0 0 1 5.5 7c.922-7.108 3.589-13.441 8-19a40.943 40.943 0 0 1 5 7c1.19-6.879 4.357-12.712 9.5-17.5 1.135-.749 2.135-.583 3 .5a16.086 16.086 0 0 0 2.5 5 315.273 315.273 0 0 0 10.5-11 48.73 48.73 0 0 1 .5 17 28.415 28.415 0 0 1-4.5 7.5c2.31.497 4.643.663 7 .5-1.484 6.979-5.15 12.479-11 16.5 3.173 2.386 4.007 5.219 2.5 8.5a69.633 69.633 0 0 1-11.5 7.5 392.694 392.694 0 0 0-19 7c-6.707 4.694-7.874 10.194-3.5 16.5a444.612 444.612 0 0 0 46 41 74.064 74.064 0 0 1 2.5-18c-12.549-6.792-15.382-16.458-8.5-29a118 118 0 0 0 10-18c1.58 3.472 1.913 7.138 1 11-2.174 6.344-4.34 12.677-6.5 19-.023 1.567.477 2.9 1.5 4a123.69 123.69 0 0 1 5-17c9.36-15.288 19.693-15.955 31-2 1.318 2.906 1.652 5.906 1 9-2.571 7.239-6.737 13.405-12.5 18.5 1.333.667 2.667.667 4 0a47.911 47.911 0 0 0 9.5-13.5l6.5-6.5c1.135-.749 2.135-.583 3 .5-3.226 9.883-8.56 18.383-16 25.5-7.385 3.386-14.718 3.22-22-.5a48.165 48.165 0 0 0-2.5 5 72.464 72.464 0 0 0 0 17 1300.458 1300.458 0 0 0 34.5 26l1-4.5a128.158 128.158 0 0 1-3-18.5c-.401-8.987 1.932-9.987 7-3 1.708-6.42 4.708-12.086 9-17a29.804 29.804 0 0 1 4.5 6c1.348-7.699 5.015-14.032 11-19a26.948 26.948 0 0 1 3.5 6 983.77 983.77 0 0 1 7-8c4.956 9.693 3.956 18.527-3 26.5 1.658 1.663 3.658 2.496 6 2.5.107 2.403-.893 4.236-3 5.5a118.063 118.063 0 0 0-8 3.5 55.752 55.752 0 0 0 6 6.5l-1 1.5c-4.435 2.021-9.102 3.021-14 3 .433 2.785 1.766 5.119 4 7l-1 1a132.136 132.136 0 0 1-15 1.5 19.887 19.887 0 0 1-4 3.5 420.672 420.672 0 0 1 22 16.5c-.405.945-1.072 1.612-2 2l-13 3.5a130.402 130.402 0 0 1-17-13.5 156.422 156.422 0 0 0-25 0 109.442 109.442 0 0 1-7.5 6.5 29.927 29.927 0 0 1-2-9c-4.486 7.28-10.652 11.613-18.5 13a15.69 15.69 0 0 0-2-4c-5.361 3.841-11.361 5.508-18 5-.277-2.948.056-5.781 1-8.5-6.607.377-13.274.544-20 .5.424-2.854 1.424-5.521 3-8-9.374-2.021-18.04-5.687-26-11a52.833 52.833 0 0 1 19-3 51.569 51.569 0 0 0-1-7c3.611-.456 6.944.211 10 2a13.116 13.116 0 0 0 1-7 36.074 36.074 0 0 1 13.5 2 718.589 718.589 0 0 0 5.5-5 35.184 35.184 0 0 1 10 5 16.635 16.635 0 0 1 5-6 255.832 255.832 0 0 1 24 22.5c4.94 3.104 10.274 4.104 16 3a710.396 710.396 0 0 1-54-47 337.706 337.706 0 0 0-26 .5c1.268 10.312-2.732 17.479-12 21.5a131.505 131.505 0 0 1-36-2.5 39.447 39.447 0 0 1 6-4.5 398.108 398.108 0 0 0 22-2c2.361-.197 4.028-1.364 5-3.5a483.123 483.123 0 0 0-31-1.5c-11.275-2.288-15.775-9.121-13.5-20.5 1.973-7.816 6.973-11.816 15-12a265.622 265.622 0 0 1 29.5 5c.219-1.175-.114-2.175-1-3a157.716 157.716 0 0 1-25-8.5 13.92 13.92 0 0 1-3-4 130.778 130.778 0 0 1 33 6c7.074 4.581 11.074 11.081 12 19.5l6 1Z" style="opacity:1"/><path fill="#f8ea13" d="M574.5 723.5c-.904.709-1.237 1.709-1 3 2.235.295 4.235-.039 6-1a32.085 32.085 0 0 0 13-3.5c8.466-10.231 19.133-16.897 32-20a703 703 0 0 0 43-2 570.265 570.265 0 0 0-29 28c-7.603 4.979-15.936 7.979-25 9-9.355.752-18.688.586-28-.5-26.26.025-46.26 11.192-60 33.5a69.18 69.18 0 0 0 18-2c6.315-5.99 13.648-10.157 22-12.5a168.29 168.29 0 0 1 23-1 252.961 252.961 0 0 1 18 3l12 2a353.458 353.458 0 0 0-29 20.5c-9.355 5.192-19.355 6.859-30 5a77.73 77.73 0 0 1-16-5 240.38 240.38 0 0 0-31 0c-2.168 3.36-5.168 5.194-9 5.5a139.57 139.57 0 0 1-13-3c-.928-1.268-1.095-2.601-.5-4 10.074-7.144 18.074-16.144 24-27 .316-7.348.816-14.681 1.5-22a135.025 135.025 0 0 1-6-28.5c.165-8.841 2.998-16.674 8.5-23.5a229.122 229.122 0 0 0 19.5-25l2 11c2.971 12.917 3.471 25.917 1.5 39-3.457 9.583-8.457 18.25-15 26-1.968 5.193-2.634 10.526-2 16 .956 1.394 2.289 2.061 4 2 8.412-3.73 15.746-9.064 22-16 17.029-17.922 20.029-37.922 9-60-3.307-10.426-4.307-21.093-3-32a1139.691 1139.691 0 0 1 16.5-42 141.691 141.691 0 0 0 8.5 32c5.057 16.222 2.724 31.222-7 45a60.076 60.076 0 0 0-1 18c1.808 1.896 3.975 2.396 6.5 1.5 10.432-9.785 18.599-21.285 24.5-34.5 1.923-10.325 1.923-20.659 0-31-15.919-16.997-21.585-36.997-17-60a307.596 307.596 0 0 0 5-28 47.223 47.223 0 0 0 5 12 218.192 218.192 0 0 1 15 20c5.05 7.996 6.716 16.662 5 26a163.272 163.272 0 0 1-5.5 22 59.183 59.183 0 0 0 4 15.5c4.046.324 6.879-1.509 8.5-5.5 12.181-24.876 12.515-49.876 1-75-19.923-17.996-26.756-40.329-20.5-67l2-15a63.617 63.617 0 0 1 4.5 8c9.834 8.029 17.5 17.695 23 29a43.85 43.85 0 0 1 1.5 12 500.017 500.017 0 0 1-2.5 27 105.944 105.944 0 0 0 7 23c1.733 2.102 3.733 2.435 6 1 9.118-18.676 12.784-38.342 11-59-.715-3.942-2.048-7.609-4-11a84.943 84.943 0 0 0-16.5-14.5c-17.621-14.414-24.787-32.914-21.5-55.5a254.915 254.915 0 0 0 5-29 143.082 143.082 0 0 0 21 28c7.173 12.03 9.507 25.03 7 39-2.145 12.051 2.022 21.385 12.5 28 4.048-4.113 5.882-9.113 5.5-15a478.962 478.962 0 0 0-1-59 50.548 50.548 0 0 0-6-12 480.27 480.27 0 0 0-29.5-22.5c-12.929-13.444-18.763-29.61-17.5-48.5a706.923 706.923 0 0 1-2-10l8.5 8.5a151.893 151.893 0 0 1 23.5 17.5c7.383 10.107 11.383 21.44 12 34 2.346 6.346 6.68 10.68 13 13a3.943 3.943 0 0 0 2-1c3.156-27.673-4.677-51.507-23.5-71.5a322.25 322.25 0 0 1-30-16c-5.305-4.299-9.472-9.466-12.5-15.5a979.662 979.662 0 0 1-10-45 81.516 81.516 0 0 0 20.5 15.5c7.048 5.602 12.548 12.435 16.5 20.5a420.988 420.988 0 0 1 7 22 51.459 51.459 0 0 0 13 11l.5-2c-8.158-20.318-16.324-40.652-24.5-61-22.269-13.282-37.603-32.282-46-57a437.079 437.079 0 0 0-7-25 365.84 365.84 0 0 0 34.5 21.5 45.255 45.255 0 0 0 8.5 7.5c6.415 6.828 10.749 14.828 13 24a589.762 589.762 0 0 1 3 24 720.583 720.583 0 0 0 25 57c4.339-7.867 6.172-16.201 5.5-25-16.74-20.275-24.907-43.608-24.5-70l31 31c6.834 11.01 8.168 22.677 4 35-6.681 15.041-9.681 30.707-9 47a1518.559 1518.559 0 0 0 14.5 29c.998-1.99 1.998-3.99 3-6a129.867 129.867 0 0 1-1.5-34 938.868 938.868 0 0 0 13-47c4.134 11.4 8.467 22.734 13 34 2.808 13.248 1.141 25.914-5 38a286.066 286.066 0 0 0-23 45c-4.187 12.225-4.521 24.559-1 37 .93 2.862 2.597 5.195 5 7l8-10a97.22 97.22 0 0 0-.5-14 45.656 45.656 0 0 1 2.5-15 576.333 576.333 0 0 1 25-32 697.25 697.25 0 0 1 4.5 33.5 140.325 140.325 0 0 1-1.5 12.5 1341.79 1341.79 0 0 1-6 10 574.412 574.412 0 0 1-29 28c-3.618 5.17-6.284 10.837-8 17a310.189 310.189 0 0 0-3 33 59.951 59.951 0 0 0 12.5-10c.462-15.753 6.462-28.92 18-39.5a125.558 125.558 0 0 0 24.5-21.5 389.187 389.187 0 0 0-2 34c-1.562 9.236-6.062 16.736-13.5 22.5a751.676 751.676 0 0 1-31 20c-8.584 6.319-13.75 14.819-15.5 25.5a179.978 179.978 0 0 0-4.5 32c7.205-1.291 13.871-3.958 20-8 1.14-15.447 7.474-28.28 19-38.5a195.066 195.066 0 0 0 25.5-21.5 232.212 232.212 0 0 0-3 16c.493 11.372-1.173 22.372-5 33-5.2 7.518-12.034 13.018-20.5 16.5a293.499 293.499 0 0 0-30 12c-9.725 5.727-16.559 13.894-20.5 24.5a1086.718 1086.718 0 0 1-6.5 25c8.298-.376 15.632-3.21 22-8.5 4.403-10.404 11.07-19.07 20-26 13.769-6.69 27.769-12.356 42-17a32.005 32.005 0 0 0-5.5 7.5 486.372 486.372 0 0 0-12 27 54.165 54.165 0 0 1-7.5 9.5c-15.414 9.022-32.081 14.022-50 15-8.899 3.041-16.399 8.208-22.5 15.5-6.009 10.314-10.509 20.98-13.5 32l11-4.5c8.614-12.945 20.614-20.611 36-23 10.512-.038 20.845-1.038 31-3-7.289 6.283-13.456 13.449-18.5 21.5-7.972 9.572-18.139 15.405-30.5 17.5a315.461 315.461 0 0 0-32 2c-7.695 2.266-14.195 6.433-19.5 12.5a236.442 236.442 0 0 1-17.5 26Z" style="opacity:1"/><path fill="#f69727" d="m221.5 207.5-2-6c.283-.789.783-1.456 1.5-2 .497 2.646.664 5.313.5 8Z" style="opacity:1"/><path fill="#ed3936" d="M589.5 201.5c9.549 3.359 15.716 10.025 18.5 20 .784 3.26.617 6.427-.5 9.5-.949.617-1.782.451-2.5-.5-.665-11.006-5.665-19.339-15-25a8.43 8.43 0 0 1-.5-4Z" style="opacity:1"/><path fill="#ee3c36" d="m219.5 201.5 2 6c.128 1.59.795 2.923 2 4 4.008-3.865 8.008-7.365 12-10.5a127.051 127.051 0 0 0-7 11.5c2.782 1.452 5.282 1.119 7.5-1 .667.667.667 1.333 0 2-3.794 2.601-7.961 4.434-12.5 5.5a64.603 64.603 0 0 1-6 7.5l3 1a83.53 83.53 0 0 1 8-1.5 8.905 8.905 0 0 1-4 3 66.59 66.59 0 0 0-11 3.5 40.943 40.943 0 0 0-5 7l1.5 1c3.474-1.603 6.974-2.769 10.5-3.5-4.362 3.681-9.362 6.014-15 7l-10 12c-1.465.601-2.465.101-3-1.5a109.279 109.279 0 0 1 7.5-10l1-17c.352 11.7 3.352 12.7 9 3a36.876 36.876 0 0 0-.5-10.5c-.006-2.3.494-4.466 1.5-6.5a30.13 30.13 0 0 0 3 12l6-8a60.186 60.186 0 0 0-1.5-11 17.11 17.11 0 0 1 1-5Z" style="opacity:1"/><path fill="#ee4135" d="M598.5 200.5c8.871 4.07 14.371 11.07 16.5 21 .784 3.26.617 6.427-.5 9.5-1.284.684-2.451.517-3.5-.5.702-11.085-3.465-19.752-12.5-26-1.126-1.308-1.126-2.642 0-4Z" style="opacity:1"/><path fill="#fef112" d="M260.5 247.5h299c.333 37.673 0 75.339-1 113-11.083-5.916-19.249-14.583-24.5-26a125.397 125.397 0 0 1-5.5-14 170.755 170.755 0 0 0-9.5 8 83.71 83.71 0 0 0-10-7 64.783 64.783 0 0 0-11 8 254.928 254.928 0 0 0-13.5-7c-6.093 21.758-19.76 36.425-41 44h-15c-21.473-9.965-40.307-23.632-56.5-41a57.668 57.668 0 0 1-8-12 111.897 111.897 0 0 1-9 11l-8-10a158.12 158.12 0 0 1-9.5 14l-13-10c-4.264 9.765-10.598 17.932-19 24.5a208.03 208.03 0 0 1-41 23.5h-4v-119Z" style="opacity:1"/><path fill="#ebe214" d="M128.5 242.5c6.994-.085 8.661 2.748 5 8.5-7.084.475-8.751-2.358-5-8.5Z" style="opacity:1"/><path fill="#76713d" d="M260.5 247.5v119h4c-1.141.839-2.474 1.506-4 2a1833.825 1833.825 0 0 1 0-121Z" style="opacity:1"/><path fill="#ed3936" d="M649.5 244.5c2.403-.107 4.236.893 5.5 3 7.136 8.418 9.47 18.085 7 29-1.011.837-2.178 1.17-3.5 1 2.452-11.71-.715-21.376-9.5-29-.579-1.428-.412-2.762.5-4Z" style="opacity:1"/><path fill="#ed3b36" d="M657.5 246.5c2.825-.419 4.991.581 6.5 3 5.212 7.9 6.879 16.567 5 26-1.074 4.654-2.574 4.987-4.5 1a42.277 42.277 0 0 0 .5-15c-2.02-5.374-4.52-10.374-7.5-15ZM602.5 282.5c.996-.086 1.829.248 2.5 1 1.84 10.505 7.507 18.172 17 23 .483.948.649 1.948.5 3-2.925.04-5.591-.793-8-2.5-6.586-4.577-10.753-10.744-12.5-18.5-.678-2.098-.511-4.098.5-6Z" style="opacity:1"/><path fill="#ed3a36" d="M608.5 277.5h4c.326 10.657 4.826 18.99 13.5 25 .483.948.649 1.948.5 3-5.994-1.141-10.494-4.474-13.5-10-3.248-5.574-4.748-11.574-4.5-18Z" style="opacity:1"/><path fill="#eee314" d="M232.5 296.5c6.504-.362 8.171 2.138 5 7.5-6.755.756-8.422-1.744-5-7.5Z" style="opacity:1"/><path fill="#2a5d3c" d="M637.5 302.5c1.763 2.385 3.263 5.052 4.5 8 .667 1 .667 2 0 3-2.575-3.226-4.075-6.893-4.5-11Z" style="opacity:1"/><path fill="#2e6d44" d="M166.5 303.5c.543.06.876.393 1 1a91.614 91.614 0 0 0-6.5 15c-1.471-2.879-2.138-5.879-2-9a25.122 25.122 0 0 0 7.5-7Z" style="opacity:1"/><path fill="#b2b2b2" d="M56.5 305.5c.412 8.9-.254 17.567-2 26 .26-8.847.926-17.514 2-26ZM764.5 305.5a269.887 269.887 0 0 1 2 26c-1.746-8.433-2.412-17.1-2-26Z" style="opacity:1"/><path fill="#00aeed" d="M363.5 324.5c14.417 17.055 31.417 31.055 51 42-20.411 4.745-39.078 13.245-56 25.5a474.375 474.375 0 0 1-52 37c-14.474 7.227-29.807 10.727-46 10.5-.333-21.677 0-43.344 1-65 15.928-6.628 30.928-14.794 45-24.5a90.108 90.108 0 0 0 19-20c1.333-.667 2.667-.667 4 0a207.319 207.319 0 0 1 10 5.5 75.568 75.568 0 0 1 8-9 68.464 68.464 0 0 1 7 9 71.118 71.118 0 0 0 9-11Z" style="opacity:1"/><path fill="#2e6e45" d="M175.5 324.5a146.84 146.84 0 0 0 3 9 84.853 84.853 0 0 1-7.5 8c.564-5.867 2.064-11.533 4.5-17Z" style="opacity:1"/><path fill="#00aeed" d="M507.5 329.5a37.963 37.963 0 0 1 11.5 6 65.743 65.743 0 0 0 6.5-4c4.821 10.813 11.487 20.313 20 28.5a62.707 62.707 0 0 0 13 7.5 990.872 990.872 0 0 1 0 89c-10.762 5.981-21.762 6.481-33 1.5a141.156 141.156 0 0 0-28-15c-10.53-2.387-20.864-1.72-31 2a158.847 158.847 0 0 1-35 14c-6 .667-12 .667-18 0a390.266 390.266 0 0 0-57-12.5c-12.126.874-23.793 3.707-35 8.5a175.378 175.378 0 0 0-18 4 131.26 131.26 0 0 1-28-.5c25.363-2.618 48.03-11.785 68-27.5a297.748 297.748 0 0 1 54-37 1021.186 1021.186 0 0 0 67-31c11.52-7.897 19.52-18.397 24-31.5l10 5a46.257 46.257 0 0 0 9-7Z" style="opacity:1"/><path fill="#a69f19" d="M103.5 325.5c-1.936 4.215-2.603 8.881-2 14-.987-4.805-1.321-9.805-1-15 1.291-.237 2.291.096 3 1Z" style="opacity:1"/><path fill="#ee3f36" d="M690.5 306.5c1.322-.17 2.489.163 3.5 1 3.869 11.286 2.369 21.786-4.5 31.5a8.43 8.43 0 0 1-4 .5 130.906 130.906 0 0 0 5.5-14c1.033-5.734.533-11.234-1.5-16.5.243-.902.577-1.735 1-2.5Z" style="opacity:1"/><path fill="#ed3736" d="M699.5 311.5c1.911.074 3.078 1.074 3.5 3 2.034 10.24.034 19.573-6 28-1.444 1.655-3.278 2.322-5.5 2a97.451 97.451 0 0 0 7.5-17c.175-5.436.342-10.769.5-16Z" style="opacity:1"/><path fill="#6f6a1b" d="m127.5 341.5 2 6c-.06.543-.393.876-1 1a13.116 13.116 0 0 1-1-7Z" style="opacity:1"/><path fill="#f4f4f4" d="M428.5 366.5h15a1338.963 1338.963 0 0 0-63 29.5 376.392 376.392 0 0 0-42 31c-14.182 10.59-29.848 18.257-47 23a253.973 253.973 0 0 1-31 1.5v-6c23.876.115 45.543-6.718 65-20.5a692.956 692.956 0 0 1 51-37 430.658 430.658 0 0 1 25-12 269.404 269.404 0 0 0 27-9.5Z" style="opacity:1"/><path fill="#ed3a36" d="M619.5 363.5c.996-.086 1.829.248 2.5 1 3.091 11.259 10.258 18.259 21.5 21v4c-13.336-2.503-21.67-10.336-25-23.5.243-.902.577-1.735 1-2.5Z" style="opacity:1"/><path fill="#ee4335" d="M112.5 343.5c1.997 2.66 3.497 5.66 4.5 9a12.804 12.804 0 0 0 3-6c.644 3.641.144 7.141-1.5 10.5a25.686 25.686 0 0 0 2.5 7.5c2.291-2.525 3.624-5.525 4-9 .96 4.988.127 9.655-2.5 14a33.74 33.74 0 0 0 2 7 37.714 37.714 0 0 0 3.5-8c.442 4.693-.392 9.193-2.5 13.5a141.726 141.726 0 0 1 3 11.5h-3a54.874 54.874 0 0 0-2.5-10 38.052 38.052 0 0 1-10.5-8l.5-1c6.812 6.183 8.978 5.183 6.5-3-4.38-1.877-8.047-4.71-11-8.5 2.638 1.636 5.638 2.802 9 3.5a17.758 17.758 0 0 0-1.5-7 56.965 56.965 0 0 1-10.5-7.5c2.199.745 4.533 1.579 7 2.5l2-1a20.086 20.086 0 0 1-2-10Z" style="opacity:1"/><path fill="#ee3d36" d="M623.5 354.5c1.644-.214 3.144.12 4.5 1 .518 11.189 5.851 19.189 16 24 .483.948.649 1.948.5 3a12.93 12.93 0 0 1-5-.5c-10.079-6.315-15.413-15.482-16-27.5Z" style="opacity:1"/><path fill="#6c661d" d="M138.5 380.5a73.314 73.314 0 0 0-1 12c-.658-1.293-.992-2.793-1-4.5-.092-2.821.574-5.321 2-7.5Z" style="opacity:1"/><path fill="#ed3437" d="M708.5 389.5a36.875 36.875 0 0 1-1 12 3.647 3.647 0 0 1-1.5-1c-.183-2.865-.683-5.531-1.5-8-.638-1.96-.638-3.793 0-5.5 2.445-.91 3.778-.076 4 2.5Z" style="opacity:1"/><path fill="#ee4335" d="M202.5 377.5a71.254 71.254 0 0 1 2 4c2.235-1.252 4.569-1.752 7-1.5l-8 5c1.99 1.751 4.323 2.751 7 3l-13-1a7.293 7.293 0 0 1-3 2 32.5 32.5 0 0 0 7 3c-3.502.694-6.836.194-10-1.5-6.539 1.902-6.539 3.735 0 5.5-3.016.664-5.849.164-8.5-1.5a45.375 45.375 0 0 0-8.5 4c-1.333-1-1.333-2 0-3l6-3a52.108 52.108 0 0 1 5.5-8c.14 1.756-.36 3.422-1.5 5 1.664.723 3.331.39 5-1a31.113 31.113 0 0 1 5.5-9c-.498 2.027-.331 4.027.5 6 3.254-1.827 5.587-4.493 7-8Z" style="opacity:1"/><path fill="#2e7347" d="M118.5 399.5c10.288 4.794 17.288 12.627 21 23.5a330.997 330.997 0 0 0-2.5 35.5 48.493 48.493 0 0 1-4.5-7c5.109-9.251 5.276-18.585.5-28-6.31-7.136-11.144-15.136-14.5-24Z" style="opacity:1"/><path fill="#f26e30" d="M708.5 389.5c.663 1.973.996 4.139 1 6.5.172 3.477-.494 6.644-2 9.5 0-2-1-3-3-3v-10c.817 2.469 1.317 5.135 1.5 8 .414.457.914.791 1.5 1a36.875 36.875 0 0 0 1-12Z" style="opacity:1"/><path fill="#ed3636" d="M704.5 402.5c2 0 3 1 3 3-1.51 5.187-4.177 9.687-8 13.5a4.934 4.934 0 0 1-3 .5 8.43 8.43 0 0 1 .5-4c3.536-3.739 6.036-8.073 7.5-13Z" style="opacity:1"/><path fill="#e2d816" d="M83.5 404.5c6.143.526 7.476 3.36 4 8.5-4.996.664-6.83-1.502-5.5-6.5.717-.544 1.217-1.211 1.5-2Z" style="opacity:1"/><path fill="#ed3c36" d="M712.5 394.5c1.322-.17 2.489.163 3.5 1 1.973 13.272-2.527 23.606-13.5 31-1.783-.848-2.283-2.181-1.5-4 9.08-7.162 12.913-16.496 11.5-28Z" style="opacity:1"/><path fill="#e9e015" d="M222.5 441.5c6.001.241 7.334 2.741 4 7.5-7.307.541-8.64-1.959-4-7.5Z" style="opacity:1"/><path fill="#f9f9f9" d="M478.5 447.5a98.432 98.432 0 0 1 14 .5 154.572 154.572 0 0 1 33 17c11.185 3.582 22.185 3.082 33-1.5a74.079 74.079 0 0 1 .5 21c-7.486 4.714-15.653 6.548-24.5 5.5a139.548 139.548 0 0 1-31-16c-11.524-4.282-23.19-4.615-35-1a364.63 364.63 0 0 0-23 11c-10.692 4.463-21.692 5.463-33 3a1342.709 1342.709 0 0 0-47-16c-8.17-.99-16.17-.323-24 2-14.127 7.615-29.127 12.615-45 15-12.306 1.972-23.973.139-35-5.5a81.224 81.224 0 0 1-.5-22c16.066 6.516 32.566 7.682 49.5 3.5a496.233 496.233 0 0 0 34-10 146.092 146.092 0 0 1 31 1 876.024 876.024 0 0 0 32 9 129.09 129.09 0 0 0 28 1 2002.647 2002.647 0 0 0 43-17.5Z" style="opacity:1"/><path fill="#ee4135" d="M627.5 432.5c.996-.086 1.829.248 2.5 1-1.869 12.387 1.464 23.054 10 32a8.43 8.43 0 0 1 .5 4c-3.114-.591-5.614-2.258-7.5-5-7.29-9.804-9.123-20.471-5.5-32Z" style="opacity:1"/><path fill="#ed3a36" d="M711.5 447.5c1.322-.17 2.489.163 3.5 1 1.185 12.959-3.648 22.959-14.5 30-1.783-.848-2.283-2.181-1.5-4 8.994-6.659 13.16-15.659 12.5-27Z" style="opacity:1"/><path fill="#ee3e36" d="M619.5 441.5c.996-.086 1.829.248 2.5 1-.302 12.73 4.698 22.73 15 30a8.43 8.43 0 0 1 .5 4c-2.64-.454-4.973-1.621-7-3.5-7.902-7.248-12.235-16.248-13-27 .259-1.787.925-3.287 2-4.5Z" style="opacity:1"/><path fill="#a29a18" d="m606.5 472.5-2 15c-.166-6.009.001-12.009.5-18 1.039.744 1.539 1.744 1.5 3Z" style="opacity:1"/><path fill="#00ac56" d="M353.5 476.5a92.65 92.65 0 0 1 22 3.5 345.774 345.774 0 0 0 41 14 85.388 85.388 0 0 0 22-1 338.534 338.534 0 0 0 32-14c10.504-3.654 20.837-3.321 31 1a215.783 215.783 0 0 1 17 10c13.225 7.696 26.892 8.53 41 2.5-3.657 71.479-38.99 119.646-106 144.5-4.014.837-8.014 1.671-12 2.5a18592.922 18592.922 0 0 0-7.5-111 943.76 943.76 0 0 0-23.5-34 943.76 943.76 0 0 0-23.5 34 18592.922 18592.922 0 0 0-7.5 111c-52.909-12.407-89.742-43.74-110.5-94-6.466-18.156-8.966-36.822-7.5-56a49.118 49.118 0 0 0 14 4.5c10.366.726 20.699.392 31-1a3761.905 3761.905 0 0 0 47-16.5Z" style="opacity:1"/><path fill="#ee3e36" d="M717.5 457.5c2.761-.585 4.427.415 5 3-1.648 8.481-5.648 15.647-12 21.5-2.572 2.287-5.572 3.453-9 3.5a4.934 4.934 0 0 1 .5-3c9.913-5.409 15.08-13.742 15.5-25Z" style="opacity:1"/><path fill="#f8f7f7" d="M436.5 653.5c-.155 9.541.512 18.874 2 28a198.277 198.277 0 0 1 2 28v10h-17v7h40a632.971 632.971 0 0 1 12 32.5c-16.663.5-33.33.667-50 .5v7h53a95.51 95.51 0 0 1 4 15 447.523 447.523 0 0 0-56-5v6c55.375 1.384 107.709 14.384 157 39 .523 3.009.023 6.009-1.5 9a614.247 614.247 0 0 1-12.5 32c-26.788-17.658-56.121-29.158-88-34.5a568.218 568.218 0 0 0-30-4 93.603 93.603 0 0 0 18 9.5 142.124 142.124 0 0 1 14 7.5 964.209 964.209 0 0 0-48.5.5l-1 39c-4.333 17.085-15.166 23.919-32.5 20.5-6.734-2.074-11.567-6.241-14.5-12.5-1.028-6.451 1.139-11.618 6.5-15.5 1.525-1.009 3.192-1.509 5-1.5.166-10.006 0-20.006-.5-30-13.771-.659-27.604-1.325-41.5-2a1448.56 1448.56 0 0 1 11-8 49.903 49.903 0 0 0 12-8.5c-39.409 1.852-76.743 11.519-112 29a255.447 255.447 0 0 0-16 10.5 688.7 688.7 0 0 1-15-39.5c8.96-6.116 18.627-11.116 29-15 40.172-15.601 81.839-24.101 125-25.5v-6a286.282 286.282 0 0 0-52 5c.694-5.415 2.36-10.415 5-15h49v-5c-14.964-1.984-30.297-2.651-46-2a191.76 191.76 0 0 1 11-33h37v-7h-15c4.482-62.997 8.982-125.997 13.5-189a467.607 467.607 0 0 1 17.5-24c7.303 8.458 13.137 17.792 17.5 28a7145.088 7145.088 0 0 1 8.5 119Z" style="opacity:1"/><path fill="#ee4435" d="M203.5 503.5a2.428 2.428 0 0 1 2 .5c-2.131 1.888-2.131 3.388 0 4.5 2.01-.862 4.01-1.362 6-1.5l-7 5a12.804 12.804 0 0 0 6 3c-3.252.791-6.252.291-9-1.5-7.303 1.083-7.636 2.917-1 5.5-3.016.664-5.849.164-8.5-1.5-6.054 1.255-6.554 3.089-1.5 5.5-2.67.543-5.17.043-7.5-1.5a44.844 44.844 0 0 0-8 4l-1.5-1.5a46.928 46.928 0 0 1 8-4.5 31.113 31.113 0 0 1 5.5-9 28.88 28.88 0 0 0-1 7l5-3c.742-3.157 2.242-5.823 4.5-8l1 .5c-3.391 6.014-2.391 7.348 3 4a81.417 81.417 0 0 0 4-7.5Z" style="opacity:1"/><path fill="#ed3a36" d="M619.5 498.5c1.752-.082 2.752.751 3 2.5-2.484 6.404-2.651 12.904-.5 19.5a246.681 246.681 0 0 0 7.5 15c-2.825.419-4.991-.581-6.5-3-6.976-10.876-8.143-22.209-3.5-34Z" style="opacity:1"/><path fill="#ee4235" d="M97.5 485.5a83.084 83.084 0 0 0 7.5 8 22.981 22.981 0 0 0 2-5l1 1c-.665 5.641 1.002 10.308 5 14 1.194-2.123 1.86-4.457 2-7l1 1 1 12c.637 1.803 1.803 3.136 3.5 4a26.724 26.724 0 0 0 1.5-7 52.76 52.76 0 0 1 2 13c3.005 2.884 4.839 6.05 5.5 9.5-.667.667-1.333.667-2 0l-7-9-8-1a7.293 7.293 0 0 1-3-2c3.018.499 6.018.332 9-.5a74.242 74.242 0 0 1-5-6.5l-8-1a7.293 7.293 0 0 1-3-2c8.617 1.83 9.95-.337 4-6.5a42.769 42.769 0 0 0-9-1.5 7.292 7.292 0 0 1-3-2c2.984.629 5.984.463 9-.5a88.628 88.628 0 0 1-6-11Z" style="opacity:1"/><path fill="#ed3736" d="M707.5 512.5h3c.556 13.558-5.111 23.558-17 30-1.22-.387-1.887-1.22-2-2.5 10.094-6.349 15.427-15.516 16-27.5Z" style="opacity:1"/><path fill="#ed3c36" d="M610.5 505.5c1.984-.016 2.984.984 3 3-1.449 10.858 1.717 20.191 9.5 28 1.009 1.525 1.509 3.192 1.5 5-6.641-2.819-11.141-7.819-13.5-15-3.004-7-3.17-14-.5-21Z" style="opacity:1"/><path fill="#ed3b36" d="M713.5 522.5c2.222.059 3.222 1.225 3 3.5-2.49 12.145-9.49 20.145-21 24-1.017-1.049-1.184-2.216-.5-3.5 10.262-4.865 16.429-12.865 18.5-24Z" style="opacity:1"/><path fill="#e5dc15" d="M82.5 555.5c5.047-.124 6.88 2.209 5.5 7-3.898 3.145-6.398 2.312-7.5-2.5.019-1.833.685-3.333 2-4.5Z" style="opacity:1"/><path fill="#e7de15" d="M226.5 557.5c4.512.369 6.012 2.702 4.5 7-3.813 3.089-6.313 2.255-7.5-2.5.057-2.209 1.057-3.709 3-4.5Z" style="opacity:1"/><path fill="#5d5d5d" d="m411.5 567.5-2-6a98.432 98.432 0 0 1 .5-14 76.4 76.4 0 0 1 1.5 20Z" style="opacity:1"/><path fill="#ee3c36" d="M598.5 571.5c1.846-.278 3.18.389 4 2-2.359 11.756.807 21.756 9.5 30a8.43 8.43 0 0 1 .5 4c-7.027-2.971-11.527-8.305-13.5-16-1.703-6.678-1.869-13.345-.5-20Z" style="opacity:1"/><path fill="#afafaf" d="M409.5 562.5a329.675 329.675 0 0 1-2 32c-.201-10.872.465-21.539 2-32Z" style="opacity:1"/><path fill="#211f1f" d="m409.5 561.5 2 6c3.013 76.333 6.18 152.667 9.5 229 3.264 13.928 11.097 24.428 23.5 31.5a114.436 114.436 0 0 0 13 6c-9.327.5-18.661.666-28 .5a1362.215 1362.215 0 0 0-3.5 48c-2.182 8.511-7.682 12.845-16.5 13-6.206-.167-11.373-2.5-15.5-7-1.096-7.578 2.238-11.578 10-12a345.993 345.993 0 0 0-.5-43c-8.673.166-17.34 0-26-.5 10.608-7.049 16.775-16.883 18.5-29.5 4-69.659 7.833-139.326 11.5-209a329.675 329.675 0 0 0 2-32v-1Z" style="opacity:1"/><path fill="#ee3c36" d="M699.5 580.5c1.752-.082 2.752.751 3 2.5-4.269 12.616-12.936 19.616-26 21-1.333-1.333-1.333-2.667 0-4 11.531-2.037 19.198-8.537 23-19.5Z" style="opacity:1"/><path fill="#ed3a36" d="M591.5 577.5c.996-.086 1.829.248 2.5 1-1.28 12.431 2.72 22.764 12 31a8.43 8.43 0 0 1 .5 4c-3.114-.591-5.614-2.258-7.5-5-5.807-6.916-8.974-14.916-9.5-24-.058-2.578.609-4.911 2-7Z" style="opacity:1"/><path fill="#ee3f36" d="M700.5 592.5h4c-.433 4.613-2.433 8.446-6 11.5-5.955 4.893-12.789 7.726-20.5 8.5-2.5-.833-3-2.333-1.5-4.5 7.742-.691 14.576-3.524 20.5-8.5a17.341 17.341 0 0 0 3.5-7Z" style="opacity:1"/><path fill="#ef4735" d="M242.5 622.5c.543.06.876.393 1 1a27.203 27.203 0 0 0-4 8c3.016.963 6.016 1.129 9 .5-3.569 2.523-7.569 3.856-12 4-1.719 1.87-2.719 4.037-3 6.5a41.213 41.213 0 0 1 9-1.5 41.746 41.746 0 0 1-12 4.5 18.924 18.924 0 0 0-3 5l2.5 1c2.217-.718 4.384-1.218 6.5-1.5-3.148 2.695-6.815 4.028-11 4a41.262 41.262 0 0 1-6.5 8.5l-1.5-1a126.126 126.126 0 0 1 5-9.5c-1.467-3.604-1.3-7.104.5-10.5.285 9.671 2.118 10.171 5.5 1.5-2.092-3.482-2.258-6.982-.5-10.5a32.444 32.444 0 0 0 1.5 6c.502 1.021 1.168 1.188 2 .5 1.65-3.94 2.483-8.107 2.5-12.5a12.403 12.403 0 0 0 2.5 4 34.482 34.482 0 0 0 6-8Z" style="opacity:1"/><path fill="#2a5a3b" d="M165.5 636.5c3.248 3.83 5.415 8.163 6.5 13-3.232-3.798-5.399-8.131-6.5-13Z" style="opacity:1"/><path fill="#ed3636" d="M572.5 629.5h3a60.769 60.769 0 0 0-4 17 40.07 40.07 0 0 0 4 16.5c-1.093 3.12-2.593 3.287-4.5.5-5.095-11.706-4.595-23.039 1.5-34Z" style="opacity:1"/><path fill="#ee4335" d="M130.5 625.5c2.824 2.3 4.657 5.3 5.5 9 6.224 5.381 7.891 4.048 5-4 2.816 3.103 4.483 6.77 5 11l6 4c.238-2.808-.096-5.474-1-8 2.777 3.218 4.777 6.885 6 11a87.52 87.52 0 0 1 8.5 7c-.865 1.083-1.865 1.249-3 .5a38.25 38.25 0 0 0-8.5-5.5c-3.807 2.17-7.641 2.337-11.5.5 11.076-.683 11.576-2.85 1.5-6.5a23.638 23.638 0 0 1-10.5.5 83.379 83.379 0 0 1 8-3l-6-4a77.73 77.73 0 0 1-13 0c3.133.046 5.8-.954 8-3l-8-7c2.904.349 5.57 1.515 8 3.5 1.019-1.96 1.019-3.96 0-6Z" style="opacity:1"/><path fill="#ed3936" d="M562.5 633.5h3c-3.561 11.93-1.894 23.097 5 33.5-1.093 3.12-2.593 3.287-4.5.5-6.987-10.868-8.154-22.201-3.5-34Z" style="opacity:1"/><path fill="#8b8619" d="m539.5 663.5-2-11c-.039-1.256.461-2.256 1.5-3 .499 4.655.666 9.321.5 14Z" style="opacity:1"/><path fill="#eee414" d="M290.5 658.5c4.831-.006 6.997 2.327 6.5 7-2.706 3.478-5.706 3.811-9 1-.982-3.275-.149-5.941 2.5-8Z" style="opacity:1"/><path fill="#ed3c36" d="M664.5 650.5c2.576.222 3.41 1.555 2.5 4-6.742 10.288-16.242 15.121-28.5 14.5-.837-1.011-1.17-2.178-1-3.5 11.829-.078 20.829-5.078 27-15Z" style="opacity:1"/><path fill="#ed3936" d="M663.5 662.5c4.036.072 4.87 1.739 2.5 5-8.249 7.858-18.082 11.025-29.5 9.5-.837-1.011-1.17-2.178-1-3.5 8.621.776 16.621-1.057 24-5.5 1.964-1.451 3.297-3.284 4-5.5Z" style="opacity:1"/><path fill="#8b851b" d="M148.5 664.5c2.107.968 4.441 1.302 7 1-2.524 1.3-5.191 1.3-8 0 .124-.607.457-.94 1-1Z" style="opacity:1"/><path fill="#adadad" d="M436.5 653.5c1.488 9.126 2.155 18.459 2 28-1.488-9.126-2.155-18.459-2-28Z" style="opacity:1"/><path fill="#ed3636" d="M522.5 683.5c1.752-.082 2.752.751 3 2.5-5.17 10.387-5.17 20.887 0 31.5-1.313 3.949-2.813 3.949-4.5 0-3.274-8.04-4.274-16.374-3-25 .986-3.306 2.486-6.306 4.5-9Z" style="opacity:1"/><path fill="#ed3936" d="M530.5 681.5h4a86.259 86.259 0 0 1-4.5 12c-1.149 7.266-.316 14.266 2.5 21 .047 1.5-.619 2.5-2 3-1.646-1.279-2.813-2.945-3.5-5-2.78-10.827-1.614-21.16 3.5-31Z" style="opacity:1"/><path fill="#e8df15" d="M135.5 703.5c4.203-.798 6.87.869 8 5-2.205 5.678-5.372 6.345-9.5 2-.833-2.671-.333-5.004 1.5-7Z" style="opacity:1"/><path fill="#635d1c" d="M222.5 707.5c.789.283 1.456.783 2 1.5-3.858.81-7.524.643-11-.5 3.213.31 6.213-.023 9-1Z" style="opacity:1"/><path fill="#ed3b36" d="M634.5 707.5c2.576.222 3.41 1.555 2.5 4-9.08 9.86-20.246 13.86-33.5 12-.17-1.322.163-2.489 1-3.5 12.377 1.162 22.377-3.005 30-12.5Z" style="opacity:1"/><path fill="#ef4835" d="M330.5 717.5c.543.06.876.393 1 1a83.63 83.63 0 0 0-3 6.5c2.736.422 5.402.422 8 0a106.467 106.467 0 0 1-11 4.5l-2 4c2.231.387 4.564.553 7 .5a19.24 19.24 0 0 1-9 3 10.94 10.94 0 0 0-3 4.5c2.326.89 4.659 1.057 7 .5a31.485 31.485 0 0 1-9 3.5 35.916 35.916 0 0 1-6 8l-1-1.5c3.438-5.613 4.938-11.78 4.5-18.5.14 2.543.806 4.877 2 7a7.293 7.293 0 0 1 2-3 129.101 129.101 0 0 1 0-12l1-1c.118 2.871.784 5.538 2 8 2.11-3.991 3.11-8.324 3-13l2 4c2.102-1.595 3.602-3.595 4.5-6Z" style="opacity:1"/><path fill="#5f5f5e" d="M379.5 719.5h15v7h-37c11.822-.995 23.822-1.328 36-1v-5c-4.863.319-9.53-.014-14-1Z" style="opacity:1"/><path fill="#646464" d="M440.5 709.5c.982 3.462 1.315 7.129 1 11h-17v5a380.934 380.934 0 0 1 39 1h-40v-7h17v-10Z" style="opacity:1"/><path fill="#6f691b" d="M574.5 723.5c1.052 1.756 2.719 2.423 5 2-1.765.961-3.765 1.295-6 1-.237-1.291.096-2.291 1-3Z" style="opacity:1"/><path fill="#ee4035" d="M635.5 717.5h3c.354 2.921-.646 5.254-3 7-8.634 7.431-18.634 10.265-30 8.5-.837-1.011-1.17-2.178-1-3.5 8.876.522 17.209-1.311 25-5.5a54.53 54.53 0 0 0 6-6.5Z" style="opacity:1"/><path fill="#a69f19" d="M588.5 754.5a168.29 168.29 0 0 0-23 1c.763-.768 1.763-1.268 3-1.5 6.846-.821 13.513-.654 20 .5Z" style="opacity:1"/><path fill="#2e7347" d="M339.5 751.5c.997-.03 1.664.47 2 1.5a431.314 431.314 0 0 1-9 23.5l-17-11.5a67.445 67.445 0 0 0 15-2c3.55-1.946 3.883-4.446 1-7.5 3.064-.783 5.731-2.116 8-4Z" style="opacity:1"/><path fill="#f7a825" d="M219.5 756.5c.543.06.876.393 1 1a1041.63 1041.63 0 0 0-12 2c-.876.131-1.543-.202-2-1 4.482-.667 8.816-1.334 13-2Z" style="opacity:1"/><path fill="#948d19" d="M606.5 757.5a49.87 49.87 0 0 1 14 1c-.457.798-1.124 1.131-2 1l-12-2Z" style="opacity:1"/><path fill="#ee4035" d="M208.5 759.5a1041.63 1041.63 0 0 1 12-2c-.124-.607-.457-.94-1-1a30.233 30.233 0 0 0-3-3.5c3.342.297 6.009 1.964 8 5 12.281 3.356 13.281 1.356 3-6 2.68-.335 5.013.499 7 2.5 2.776 5.722 7.11 7.388 13 5a34.534 34.534 0 0 0-6-5.5c4.834.97 8.834 3.47 12 7.5a49.87 49.87 0 0 0 14 1v3a112.97 112.97 0 0 0-15 .5 45.808 45.808 0 0 1-11 6.5c-1.196-.346-1.196-.846 0-1.5 3.956-1.118 6.289-3.618 7-7.5-5.661-1.158-10.327.342-14 4.5-2.15 1.59-4.483 2.257-7 2 10.049-6.432 9.049-8.766-3-7-2.763 3.878-6.43 5.878-11 6a21.741 21.741 0 0 0 7-6.5 60.204 60.204 0 0 0-12-3Z" style="opacity:1"/><path fill="#797f7a" d="M392.5 761.5v5h-49a576.628 576.628 0 0 1 48-1c-.268-1.599.066-2.932 1-4Z" style="opacity:1"/><path fill="#ed3a36" d="M585.5 759.5h3c.214 1.644-.12 3.144-1 4.5-10.572 6.808-21.905 8.308-34 4.5v-4c11.654 3.827 22.321 2.16 32-5Z" style="opacity:1"/><path fill="#ed3536" d="M584.5 770.5c3.987 1.541 3.987 3.375 0 5.5-10.681 4.624-21.348 4.624-32 0-.88-1.356-1.214-2.856-1-4.5a61.198 61.198 0 0 0 18.5 4c5.494.003 10.328-1.664 14.5-5Z" style="opacity:1"/><path fill="#f58e8e" d="M378.5 791.5c3.798-.983 7.798-1.317 12-1 .318 4.532-.015 8.866-1 13v-12h-11Z" style="opacity:1"/><path fill="#ed3337" d="M378.5 791.5h11v12a43.171 43.171 0 0 1-3 10 49.87 49.87 0 0 1-14 1 571.447 571.447 0 0 0-5-23h11Z" style="opacity:1"/><path fill="#ed3639" d="M426.5 790.5c9.189-.369 18.189.631 27 3a311.429 311.429 0 0 1-6 20.5 25.238 25.238 0 0 1-10 0c-6.065-6.687-9.732-14.52-11-23.5Z" style="opacity:1"/><path fill="#ed3337" d="M353.5 793.5c2.266-.359 4.099.308 5.5 2a71.213 71.213 0 0 1 4.5 21 244.327 244.327 0 0 0-53.5 10c-3.394-6.492-6.227-13.326-8.5-20.5l1-1.5c16.883-4.808 33.883-8.475 51-11ZM462.5 793.5a350.546 350.546 0 0 1 57 11 238.66 238.66 0 0 1-6.5 20c-.388.928-1.055 1.595-2 2a280.395 280.395 0 0 0-53.5-10 87.642 87.642 0 0 1 5-23ZM290.5 807.5c1.835.622 3.002 1.956 3.5 4a104.765 104.765 0 0 0 6.5 17 276.073 276.073 0 0 0-45 21 131.915 131.915 0 0 1-9-22.5 193.355 193.355 0 0 1 44-19.5ZM528.5 807.5c16.184 4.667 31.517 11.167 46 19.5a132.244 132.244 0 0 1-9 22.5 205.036 205.036 0 0 0-44.5-20 863.218 863.218 0 0 1 7.5-22Z" style="opacity:1"/><path fill="#1f2424" d="M367.5 831.5a1448.56 1448.56 0 0 0-11 8c13.896.675 27.729 1.341 41.5 2 .5 9.994.666 19.994.5 30-1.808-.009-3.475.491-5 1.5-5.361 3.882-7.528 9.049-6.5 15.5 2.933 6.259 7.766 10.426 14.5 12.5 17.334 3.419 28.167-3.415 32.5-20.5l1-39a964.209 964.209 0 0 1 48.5-.5 142.124 142.124 0 0 0-14-7.5c6.125-1.047 12.125-.381 18 2a535.437 535.437 0 0 0 23 13.5c-23.3-.938-46.633-1.438-70-1.5a271.09 271.09 0 0 1-1.5 37c-6.946 19.391-20.446 26.557-40.5 21.5-13.601-4.375-19.101-13.542-16.5-27.5 2.261-4.429 5.428-8.096 9.5-11a111.148 111.148 0 0 0 1-21h-18l-38-2a156.846 156.846 0 0 0 20-13c3.009-.783 6.176-1.45 9.5-2 1.03.336 1.53 1.003 1.5 2Z" style="opacity:1"/><path fill="#2f794a" d="M356.5 831.5a156.846 156.846 0 0 1-20 13c-.543.06-.876.393-1 1a381.292 381.292 0 0 0 39 1h18c.33 7.032-.003 14.032-1 21-4.072 2.904-7.239 6.571-9.5 11-2.601 13.958 2.899 23.125 16.5 27.5 20.054 5.057 33.554-2.109 40.5-21.5a271.09 271.09 0 0 0 1.5-37c23.367.062 46.7.562 70 1.5a535.437 535.437 0 0 1-23-13.5c28.921 5.806 55.588 16.973 80 33.5a94.09 94.09 0 0 1-11 7c-35.271 17.302-70.605 34.635-106 52a254.825 254.825 0 0 0-40 26.5 254.825 254.825 0 0 0-40-26.5 1722.94 1722.94 0 0 0-85-41 372.204 372.204 0 0 1-32-18c21.757-15.27 45.757-25.937 72-32a229.823 229.823 0 0 1 31-5.5Z" style="opacity:1"/><path fill="#254934" d="m336.5 844.5 38 2a381.292 381.292 0 0 1-39-1c.124-.607.457-.94 1-1Z" style="opacity:1"/></svg>